<svg xmlns="http://www.w3.org/2000/svg" viewBox="0 0 512 512" width="512" height="512">
  <!-- Main circle background -->
  <circle cx="256" cy="256" r="250" fill="#3b82f6" />
  
  <!-- Inner circle with gradient -->
  <circle cx="256" cy="256" r="210" fill="url(#grad1)" />
  
  <!-- Gradient definition -->
  <defs>
    <linearGradient id="grad1" x1="0%" y1="0%" x2="100%" y2="100%">
      <stop offset="0%" style="stop-color:#3b82f6;stop-opacity:1" />
      <stop offset="100%" style="stop-color:#60a5fa;stop-opacity:1" />
    </linearGradient>
    <linearGradient id="grad2" x1="0%" y1="0%" x2="100%" y2="100%">
      <stop offset="0%" style="stop-color:#ffffff;stop-opacity:0.9" />
      <stop offset="100%" style="stop-color:#ffffff;stop-opacity:0.7" />
    </linearGradient>
  </defs>
  
  <!-- Stylized G letter with travel elements -->
  <path d="M320 190c0-35.35-28.65-64-64-64-35.35 0-64 28.65-64 64 0 35.35 28.65 64 64 64 7.25 0 14.25-1.25 20.8-3.5l59.95 59.95C323.8 295.05 304 263.8 304 228c0-8.85 1.2-17.4 3.4-25.6L259.45 154.45C265 153.5 270.4 153 276 153c33.15 0 62.1 16.45 80 41.55V190H320z" fill="url(#grad2)" />
  
  <!-- Route/path element -->
  <path d="M150 256c0 11.05 11.95 20 20 20s20-8.95 20-20-11.95-20-20-20-20 8.95-20 20zM256 366c11.05 0 20-11.95 20-20s-8.95-20-20-20-20 11.95-20 20 8.95 20 20 20z" fill="#ffffff" />
  <path d="M150 256h105" stroke="#ffffff" stroke-width="8" stroke-dasharray="16 8" />
  <path d="M255 256v90" stroke="#ffffff" stroke-width="8" stroke-dasharray="16 8" />
  
  <!-- X stylized mark with glow -->
  <path d="M342 172l-30 30m0-30l30 30" stroke="#ffffff" stroke-width="12" stroke-linecap="round" />
  <circle cx="342" cy="172" r="18" fill="none" stroke="#ffffff" stroke-width="8" />
  
  <!-- Circular design element -->
  <circle cx="170" cy="170" r="40" fill="none" stroke="rgba(255, 255, 255, 0.5)" stroke-width="8" stroke-dasharray="12 8" />
  
  <!-- GoX text -->
  <text x="256" y="440" font-family="Arial, sans-serif" font-size="72" font-weight="bold" text-anchor="middle" fill="#ffffff">GoX</text>
</svg> 